<?xml version="1.0" encoding="utf-8"?>
<!-- Generator: Adobe Illustrator 28.4.1, SVG Export Plug-In . SVG Version: 6.00 Build 0)  -->
<svg version="1.1" id="Calque_1" xmlns="http://www.w3.org/2000/svg" xmlns:xlink="http://www.w3.org/1999/xlink" x="0px" y="0px"
	 viewBox="0 0 324 190.7" style="enable-background:new 0 0 324 190.7;" xml:space="preserve">
<style type="text/css">
	.st0{fill:#0C5329;}
	.st1{fill:#FFFFFF;}
	.st2{font-family:'MonotypeCorsiva';}
	.st3{font-size:21px;}
</style>
<g>
	<circle class="st0" cx="146.2" cy="38.9" r="10.8"/>
	<circle class="st0" cx="241.8" cy="68.3" r="11.4"/>
	<path class="st0" d="M241.8,145.8"/>
	<path class="st0" d="M244.6,166.6"/>
	<path class="st0" d="M95.5,164.3"/>
	<path class="st0" d="M241.8,145.8"/>
	<path class="st0" d="M213.1,148.8c0,0,1.5-2.2,1.5-4.4c0,0,0.1-1.8-0.1-2.6c-0.2-0.8-0.7-2.7-0.8-2.8S200,105.3,200,105.3
		s-0.7-1.8-3.1-2l-17.3-0.6c0,0-2.9,0.3-4-2H198l-27.8-67.2l-15,36.2l-5.5-1.9l18.8-46.1c0,0,2.9-7-3.4-11L163,9.5l-1.9-0.8L159.7,8
		l-1-1l15.7,0.1c0,0,1.5,0.5,2.3,2.2s38.8,88.4,38.8,88.4s0.4,1.7,2.7,2.2c0,0,0.7,0.1,1.7-0.1c0,0,7.2-1,7.7-1.1S248.8,96,252.3,75
		l-0.8-0.7l1-1.9c0,0,1.1-3.5,0.7-4.9c-0.4-1.3-0.2-4.7-2.9-6.9s-1-1.7-6.7-3.6c0,0,8.4,0.3,10.7,10.8c0,0,6.3,30-33.7,34.9
		l-1.8,0.2c0,0-1.2,0.8-0.3,1.9s19,44,19,44H213.1z"/>
	<path class="st0" d="M150.3,96.2c0,0-9.8-11.9-25.7-19.6S101.8,60.9,97.9,57c0,0-19.1-21.4,0.7-40.8c0,0,19.8-17.1,45.6-3.9
		c0,0,18.2,9.2,11.8,31L150.8,29c0,0,2.7,1.4,4.4,2.9c0,0-0.5-19.7-27.4-20c0,0-21.9,0.3-19.8,23.1c0,0,0.6,8.4,11.4,17.1
		s34.7,22.7,38.6,27s15.4,11.4,16.1,30.5c0.7,19.1-29.6,45.4-54.1,44.6c-24.5-0.7-38.7-16.7-38.7-29.7s6.6-18.6,10.4-21.2
		s10.5-9.4,45.1-6.5C136.7,97,148.8,96.5,150.3,96.2z"/>
	<path class="st1" d="M153.9,101.7c0,0,2.6,3,4.1,11.1s-1.2,14.1-1.2,14.1s-1.1,3.4-2.9,4.9c-1.7,1.6-10.5,15.4-36.7,16.1
		c-26.2,0.8-34.3-19.1-33.9-24.1c0.4-5,0.6-15.1,14.3-20.9c0,0,6.9-3,15.7-3.7c1.1-0.1,1.1-0.4,5.8-0.6c4.8-0.2,30.6,0,30.6,0
		S153.2,98.8,153.9,101.7z"/>
</g>
<text transform="matrix(1 0 0 1 110.4398 172.7824)" class="st0 st2 st3">Senouci Ahmed</text>
</svg>
