<?xml version="1.0" encoding="utf-8"?>
<!-- Generator: Adobe Illustrator 28.4.1, SVG Export Plug-In . SVG Version: 6.00 Build 0)  -->
<svg version="1.1" id="Calque_1" xmlns="http://www.w3.org/2000/svg" xmlns:xlink="http://www.w3.org/1999/xlink" x="0px" y="0px"
	 viewBox="0 0 2000 2000" style="enable-background:new 0 0 2000 2000;" xml:space="preserve">
<style type="text/css">
	.st0{fill:#272728;}
	.st1{fill:#FFD31A;}
	.st2{fill:#272727;}
</style>
<path class="st0" d="M109.1,837.5"/>
<g>
	<path class="st1" d="M120.9,645.8v-37.7h408.2v39.6c0,0-111.3,3.6-90.8,64.5l53.7,149c0,0,53.2-18.3,233.7-18.8l48.2-136.8
		c0,0,24.4-41.5-94.2-56.5v-44.3h289.7v44.9c0,0-93.6,5.5-108.6,68.7l-72.6,185c0,0-493.2-69.8-722.8,232.9
		c0,0,119.4-165.9,254.5-214.6l-85.3-218.2C234.7,703.4,210.3,659.1,120.9,645.8z"/>
	<path class="st2" d="M196.5,1470.2c0,0,98-196.1,241.8-252.6l87.2,231l51.5,0.8l127.9-335.6
		C704.9,1113.8,282.1,1116.8,196.5,1470.2z"/>
	<path class="st0" d="M994,1514.2"/>
	<path class="st0" d="M753.1,1703.6"/>
	<path class="st2" d="M994,1519.2c0,0-138.7,162-240.9,211c0,0-258.4,183.6-501.8,59c0,0-130.4-44.9-194.4-214.3
		c0,0-82.2-192.7,53.2-362.2c0,0,68.1-138.7,371.4-207.7c0,0,221.8-39,386.3-23.3c164.5,15.8,312.4,13.3,461.9,11.6
		c0,0,540,13.8,581.5-389.6c0,0,6.6-348.6-422-355.3c0,0-237.6,34.9-478.5,277.5c0,0,325.7-418.7,681.2-294.1s265.8,442,265.8,442
		s-48.2,290.8-402.1,355.6c0,0-221,76.4-699.5,19.9c0,0-428.7-58.2-686.2,191.1c0,0-187.8,229.3,13.3,433.7
		c0,0,137.9,202.7,488.5,74.8C671.7,1748.7,875.5,1641.8,994,1519.2z"/>
	<path class="st0" d="M878.3,1566.5"/>
	<path class="st2" d="M878.3,1566.5c0,0-349.8,243.4-525,137.1l-85.6-28.2C267.7,1675.4,458.7,1908,878.3,1566.5z"/>
	<path class="st0" d="M1138.4,464.3c0,0,357.5-231.9,529.2-120l84.6,31C1752.2,375.3,1568.8,136.6,1138.4,464.3z"/>
	<path class="st1" d="M1075.2,833l16.6-228.2h638v46.5l-136.2,198.3c0,0,173.3-37.9,232.6-265.8c0,0,10,242.6-232.6,305.7
		c0,0-149.5,39.9-247.6,31.6l159.5-240.9l-284.1,3.3c0,0-63-1.7-83,99.7l-16.4,52.6L1075.2,833z"/>
	<path class="st2" d="M1665.6,1271.5l-1.1,19.6c0,0,1.8,6.1-7,7.9l-8.3,3.4C1655.2,1292.5,1660.6,1282,1665.6,1271.5z"/>
	<path class="st2" d="M1690,1293.8c-10.2-3-7-12.1-7-12.1l3.3-61.7v0c3.4-10,5.9-18,7.2-22.4c3,5.6,1.5,12.1,1.5,12.1L1690,1293.8z"
		/>
	<path class="st2" d="M1704.1,1388.4c0,0,2.6,0.6,4.9,3c-0.8,4.7-1.6,9-2.3,13l-33.3-19.8c0,0-8.2-3.6-5.8-9.7l0.7-11L1704.1,1388.4
		z"/>
	<path class="st2" d="M1712.4,1371.8C1712.4,1371.8,1712.4,1371.8,1712.4,1371.8c-0.7,4-1.4,7.7-2,11.4l-35.7-21.2
		c0,0-8.2-3.6-5.7-9.7l0.6-11l35.8,24.4C1705.4,1365.8,1710,1366.8,1712.4,1371.8z"/>
	<path class="st2" d="M1714.8,1351.4l-0.6,10l-38.2-22.6c0,0-8.2-3.7-5.7-9.7l0.6-11.1l35.8,24.4
		C1706.8,1342.5,1713,1343.9,1714.8,1351.4z"/>
	<path class="st2" d="M1716.3,1327.6l-0.6,10l-38.2-22.6c0,0-8.2-3.7-5.8-9.7l0.7-11.1l35.8,24.4
		C1708.2,1318.7,1714.4,1320.2,1716.3,1327.6z"/>
	<path class="st2" d="M1355.7,1193.5l-106.3,165.1l305.1-4.2l20.5-0.3c4.8,1.1,9.6,1.4,14.2,0.8l-3.3,57l27.2-2.4
		c0,0,3.6-0.1,3.1-10.5c-0.6-10.4,0.3-0.6,0.3-0.6l3.5-58.9c6.9-6.1,13.4-13.7,19.5-22.2l-5.3,90.3l31.4,2l1.1-19.5l38.5,23.8
		c-1.7,9.7-2.7,15.5-2.7,15.5h-674.6V1384l169.5-247.9c525.2,45.9,715.2-227,722-237C1756.4,1184.6,1355.7,1193.5,1355.7,1193.5z"/>
	<g>
		<path class="st2" d="M1705.1,1413.9c-1.7,9.7-2.7,15.5-2.7,15.5H1666c-25.5-2.3-59.8-4.6-79.7-3.2c0,0-88.8,2.5-96.5,3.1l61-12.1
			l3.7-62.9l1.4-24.4c0,0,14.5-21.7,38.2-14.7c0,0,10.6,0.9,16.7,1.1l-18.4,15.6c0,0-3.1,0.8-2.7,14.5l-0.5,8.5l-3.3,57l27.2-2.4
			c0,0,3.6-0.1,3.1-10.5c-0.6-10.4,0.3-0.6,0.3-0.6l3.5-58.9l5.9-101l-33.4,19c0,0-10.3,6-7.3,23.3l-1.5,21.3l-8.2-0.5l2.2-37.3
			c0,0-0.7-8.1,6.7-10.2l46.1-27c0,0,4.2-4.1,8,0.5l23.5,19.2c0,0,5.7,2.4,4.6,9.8l-0.8,14.9l-1.1,19.6c0,0,1.8,6.1-7,7.9l-8.3,3.4
			l-6.3,2.6c0,0-2.8,1-3,4.6l-0.5,7.6l-5.3,90.3l31.4,2l1.1-19.5L1705.1,1413.9z"/>
		<path class="st2" d="M1695,1209.6l-5,84.2c-10.2-3-7-12.1-7-12.1l3.3-61.7v0l0.5-9c2.6-10.5-4.4-14.1-4.4-14.1l-36.3-27.9
			l-2.3,39.2l-30,16.1l2.8-48.3c-0.7-4,2.5-5.4,2.5-5.4l18.9-16.8l51.3,39.1c1.9,1.3,3.2,3,4.1,4.7c0,0,0,0,0,0
			C1696.4,1203.1,1695,1209.6,1695,1209.6z"/>
		<path class="st2" d="M1716.3,1327.6l-0.6,10l-38.2-22.6c0,0-8.2-3.7-5.8-9.7l0.7-11.1l35.8,24.4
			C1708.2,1318.7,1714.4,1320.2,1716.3,1327.6z"/>
		<path class="st2" d="M1714.8,1351.4l-0.6,10l-38.2-22.6c0,0-8.2-3.7-5.7-9.7l0.6-11.1l35.8,24.4
			C1706.8,1342.5,1713,1343.9,1714.8,1351.4z"/>
		<path class="st2" d="M1713.5,1374.7l-0.6,10l-2.4-1.5l-35.7-21.2c0,0-8.2-3.6-5.7-9.7l0.6-11l35.8,24.4c0,0,4.6,1,7.1,6
			c0,0,0,0,0,0C1712.9,1372.7,1713.2,1373.6,1713.5,1374.7z"/>
		<path class="st2" d="M1712.2,1397.3l-0.6,10l-4.8-2.9l-33.3-19.8c0,0-8.2-3.6-5.8-9.7l0.7-11l35.8,24.4c0,0,2.6,0.6,4.9,3
			C1710.3,1392.7,1711.5,1394.6,1712.2,1397.3z"/>
	</g>
	<g>
		<path class="st2" d="M1057.3,1446.6l15.7,46.4l15.7-46.7c0.8-2.5,1.4-4.2,1.8-5.1c0.4-1,1.1-1.8,2-2.6c0.9-0.8,2.2-1.2,3.9-1.2
			c1.2,0,2.3,0.3,3.3,0.9c1,0.6,1.8,1.4,2.4,2.4c0.6,1,0.9,2,0.9,3c0,0.7-0.1,1.4-0.3,2.2s-0.4,1.6-0.7,2.4
			c-0.3,0.8-0.6,1.6-0.8,2.4l-16.7,45.2c-0.6,1.7-1.2,3.4-1.8,4.9c-0.6,1.6-1.3,2.9-2.1,4.1s-1.8,2.1-3.1,2.9
			c-1.3,0.8-2.9,1.1-4.8,1.1s-3.5-0.4-4.8-1.1c-1.3-0.7-2.4-1.7-3.2-2.9c-0.8-1.2-1.5-2.6-2.1-4.1c-0.6-1.5-1.2-3.2-1.8-4.9
			l-16.5-44.8c-0.3-0.8-0.6-1.6-0.9-2.4c-0.3-0.8-0.6-1.6-0.8-2.5c-0.2-0.9-0.3-1.7-0.3-2.3c0-1.6,0.6-3.1,1.9-4.4
			c1.3-1.3,2.9-2,4.9-2c2.4,0,4.1,0.7,5.1,2.2S1056.3,1443.4,1057.3,1446.6z"/>
		<path class="st2" d="M1117.9,1450.6c-1.8,0-3.3-0.5-4.6-1.7s-1.9-2.7-1.9-4.7c0-1.8,0.7-3.3,2-4.5c1.3-1.2,2.8-1.8,4.6-1.8
			c1.7,0,3.1,0.5,4.4,1.6c1.3,1.1,1.9,2.6,1.9,4.7c0,2-0.6,3.5-1.9,4.6C1121.1,1450,1119.6,1450.6,1117.9,1450.6z M1124.2,1463.9
			v37.2c0,2.6-0.6,4.5-1.8,5.8c-1.2,1.3-2.8,2-4.7,2s-3.4-0.7-4.6-2c-1.2-1.4-1.8-3.3-1.8-5.8v-36.8c0-2.5,0.6-4.5,1.8-5.8
			c1.2-1.3,2.7-1.9,4.6-1.9s3.4,0.6,4.7,1.9C1123.6,1459.8,1124.2,1461.6,1124.2,1463.9z"/>
		<path class="st2" d="M1149.4,1444.8v19.7c2.4-2.5,4.9-4.4,7.4-5.8c2.5-1.3,5.6-2,9.3-2c4.3,0,8,1,11.2,3c3.2,2,5.7,5,7.5,8.8
			c1.8,3.9,2.7,8.4,2.7,13.7c0,3.9-0.5,7.5-1.5,10.7c-1,3.3-2.4,6.1-4.3,8.5c-1.9,2.4-4.2,4.2-6.9,5.5s-5.7,2-8.9,2
			c-2,0-3.8-0.2-5.6-0.7s-3.2-1.1-4.5-1.9c-1.2-0.8-2.3-1.6-3.1-2.4c-0.9-0.8-2-2-3.4-3.7v1.3c0,2.4-0.6,4.3-1.7,5.5
			c-1.2,1.2-2.6,1.9-4.4,1.9c-1.8,0-3.3-0.6-4.4-1.9c-1.1-1.2-1.6-3.1-1.6-5.5v-56.2c0-2.6,0.5-4.6,1.6-5.9s2.5-2,4.4-2
			c2,0,3.5,0.6,4.6,1.9C1148.9,1440.6,1149.4,1442.4,1149.4,1444.8z M1150,1483c0,5.1,1.2,9.1,3.5,11.8c2.3,2.8,5.4,4.1,9.2,4.1
			c3.2,0,6-1.4,8.4-4.2c2.3-2.8,3.5-6.8,3.5-12.1c0-3.4-0.5-6.3-1.5-8.8c-1-2.5-2.4-4.3-4.2-5.7c-1.8-1.3-3.9-2-6.3-2
			c-2.5,0-4.6,0.7-6.6,2c-1.9,1.3-3.4,3.3-4.5,5.8S1150,1479.5,1150,1483z"/>
		<path class="st2" d="M1233.8,1485.9h-25.2c0,2.9,0.6,5.5,1.8,7.7c1.1,2.2,2.7,3.9,4.6,5c1.9,1.1,4,1.7,6.3,1.7
			c1.5,0,2.9-0.2,4.2-0.5c1.3-0.4,2.5-0.9,3.7-1.7c1.2-0.8,2.3-1.6,3.3-2.5c1-0.9,2.3-2.1,3.9-3.6c0.7-0.6,1.6-0.8,2.8-0.8
			c1.3,0,2.4,0.4,3.2,1.1s1.2,1.7,1.2,3.1c0,1.2-0.5,2.5-1.4,4.1c-0.9,1.6-2.3,3-4.1,4.5c-1.8,1.4-4.2,2.6-6.9,3.6
			c-2.8,0.9-6,1.4-9.6,1.4c-8.3,0-14.7-2.4-19.3-7.1s-6.9-11.1-6.9-19.2c0-3.8,0.6-7.3,1.7-10.6c1.1-3.3,2.8-6,5-8.4
			c2.2-2.3,4.8-4.1,8-5.4s6.7-1.9,10.6-1.9c5,0,9.3,1.1,12.9,3.2c3.6,2.1,6.3,4.9,8.1,8.2c1.8,3.4,2.7,6.8,2.7,10.3
			c0,3.2-0.9,5.3-2.8,6.3C1239.8,1485.4,1237.2,1485.9,1233.8,1485.9z M1208.7,1478.6h23.3c-0.3-4.4-1.5-7.7-3.6-9.9
			c-2.1-2.2-4.8-3.3-8.1-3.3c-3.2,0-5.8,1.1-7.9,3.3C1210.3,1471,1209.1,1474.3,1208.7,1478.6z"/>
		<path class="st2" d="M1268.1,1490.3v10.8c0,2.6-0.6,4.6-1.8,5.9s-2.8,2-4.7,2c-1.9,0-3.4-0.7-4.6-2c-1.2-1.3-1.8-3.3-1.8-5.8
			v-35.8c0-5.8,2.1-8.7,6.3-8.7c2.1,0,3.7,0.7,4.6,2s1.5,3.3,1.6,6c1.5-2.6,3.1-4.6,4.7-6c1.6-1.4,3.8-2,6.5-2c2.7,0,5.3,0.7,7.9,2
			s3.8,3.1,3.8,5.4c0,1.6-0.5,2.9-1.6,3.9c-1.1,1-2.3,1.5-3.5,1.5c-0.5,0-1.6-0.3-3.4-0.9c-1.8-0.6-3.4-0.9-4.8-0.9
			c-1.9,0-3.4,0.5-4.6,1.5s-2.1,2.5-2.8,4.4c-0.7,2-1.1,4.3-1.4,7C1268.2,1483.2,1268.1,1486.5,1268.1,1490.3z"/>
		<path class="st2" d="M1332.6,1471.3l-23.6,26.4h25.2c2,0,3.6,0.5,4.6,1.4c1,1,1.6,2.2,1.6,3.7c0,1.4-0.5,2.6-1.5,3.5
			c-1,0.9-2.6,1.4-4.6,1.4h-34.9c-2.5,0-4.3-0.5-5.5-1.6c-1.2-1.1-1.8-2.5-1.8-4.4c0-1.1,0.4-2.2,1.3-3.3c0.8-1.1,2.6-3.2,5.3-6.2
			c2.8-3.1,5.4-6,7.7-8.5s4.5-4.9,6.4-7.1c2-2.2,3.6-4.1,4.9-5.6c1.3-1.5,2.3-2.9,3.1-4h-19.1c-2.6,0-4.6-0.2-6-0.7
			c-1.4-0.5-2-1.7-2-3.7c0-1.5,0.5-2.7,1.5-3.5c1-0.9,2.5-1.3,4.4-1.3h29.6c2.7,0,4.8,0.4,6.3,1.2c1.5,0.8,2.2,2.2,2.2,4.3
			c0,0.7-0.1,1.4-0.4,2.1c-0.3,0.7-0.6,1.3-0.9,1.8c-0.3,0.5-0.8,1-1.4,1.7C1334.2,1469.6,1333.5,1470.4,1332.6,1471.3z"/>
		<path class="st2" d="M1404.6,1501.7c-3.1,2.4-6.1,4.2-9,5.4s-6.2,1.8-9.8,1.8c-3.3,0-6.2-0.7-8.7-2c-2.5-1.3-4.4-3.1-5.8-5.3
			c-1.4-2.2-2-4.7-2-7.3c0-3.5,1.1-6.5,3.3-9c2.2-2.5,5.3-4.2,9.2-5c0.8-0.2,2.8-0.6,6.1-1.3c3.2-0.7,6-1.3,8.3-1.8
			c2.3-0.5,4.8-1.2,7.5-2c-0.2-3.4-0.8-5.9-2.1-7.5c-1.2-1.6-3.7-2.4-7.5-2.4c-3.3,0-5.7,0.5-7.4,1.4c-1.7,0.9-3.1,2.3-4.2,4.1
			c-1.2,1.8-2,3-2.5,3.6c-0.5,0.6-1.5,0.9-3.1,0.9c-1.4,0-2.7-0.5-3.8-1.4c-1.1-0.9-1.6-2.1-1.6-3.6c0-2.3,0.8-4.5,2.4-6.6
			s4.1-3.9,7.5-5.3c3.4-1.4,7.6-2.1,12.7-2.1c5.7,0,10.1,0.7,13.3,2c3.2,1.3,5.5,3.5,6.9,6.3c1.3,2.9,2,6.7,2,11.5c0,3,0,5.6,0,7.7
			c0,2.1,0,4.5-0.1,7c0,2.4,0.4,4.9,1.2,7.6c0.8,2.6,1.2,4.3,1.2,5.1c0,1.3-0.6,2.5-1.9,3.6c-1.2,1.1-2.6,1.6-4.2,1.6
			c-1.3,0-2.6-0.6-3.9-1.9C1407.4,1505.8,1406.1,1504,1404.6,1501.7z M1403.8,1483c-1.9,0.7-4.6,1.4-8.2,2.2s-6.1,1.3-7.5,1.7
			c-1.4,0.4-2.7,1.1-4,2.1c-1.3,1.1-1.9,2.5-1.9,4.4c0,2,0.7,3.6,2.2,5c1.5,1.4,3.4,2.1,5.8,2.1c2.5,0,4.9-0.6,7.1-1.7
			c2.2-1.1,3.7-2.6,4.7-4.3c1.2-1.9,1.7-5.2,1.7-9.6V1483z"/>
		<path class="st2" d="M1475.6,1466v37.4c0,4.3-0.5,8-1.4,11c-0.9,3.1-2.4,5.6-4.4,7.6c-2,2-4.6,3.5-7.9,4.5
			c-3.3,1-7.3,1.5-12.1,1.5c-4.4,0-8.4-0.6-11.9-1.9s-6.2-2.8-8.1-4.8c-1.9-2-2.8-4-2.8-6.1c0-1.6,0.5-2.9,1.6-3.8
			c1.1-1,2.4-1.5,3.9-1.5c1.9,0,3.5,0.8,5,2.5c0.7,0.8,1.4,1.7,2.1,2.6c0.7,0.9,1.6,1.6,2.5,2.2s2,1.1,3.2,1.4
			c1.3,0.3,2.7,0.4,4.3,0.4c3.3,0,5.9-0.5,7.8-1.4c1.8-0.9,3.1-2.2,3.9-3.9c0.7-1.7,1.2-3.5,1.3-5.4c0.1-1.9,0.2-5,0.3-9.2
			c-2,2.8-4.3,4.9-6.9,6.3c-2.6,1.4-5.7,2.2-9.3,2.2c-4.3,0-8.1-1.1-11.3-3.3c-3.2-2.2-5.7-5.3-7.4-9.2s-2.6-8.5-2.6-13.7
			c0-3.9,0.5-7.4,1.6-10.5c1.1-3.1,2.6-5.7,4.5-7.9c1.9-2.1,4.2-3.7,6.7-4.8s5.3-1.6,8.4-1.6c3.6,0,6.8,0.7,9.5,2.1
			c2.7,1.4,5.2,3.6,7.5,6.6v-1.7c0-2.2,0.5-4,1.7-5.2c1.1-1.2,2.5-1.8,4.2-1.8c2.5,0,4.1,0.8,5,2.4
			C1475.2,1460.6,1475.6,1463,1475.6,1466z M1438.3,1482.3c0,5.2,1.1,9.2,3.4,11.8c2.3,2.7,5.2,4,8.8,4c2.1,0,4.2-0.6,6.1-1.7
			s3.5-2.9,4.6-5.2s1.8-5.1,1.8-8.4c0-5.3-1.2-9.3-3.5-12.3c-2.3-2.9-5.4-4.4-9.1-4.4c-3.7,0-6.6,1.4-8.8,4.2
			C1439.4,1473.2,1438.3,1477.2,1438.3,1482.3z"/>
		<path class="st2" d="M1522.1,1485.9h-25.2c0,2.9,0.6,5.5,1.8,7.7c1.1,2.2,2.7,3.9,4.6,5c1.9,1.1,4,1.7,6.3,1.7
			c1.5,0,2.9-0.2,4.2-0.5c1.3-0.4,2.5-0.9,3.7-1.7c1.2-0.8,2.3-1.6,3.3-2.5c1-0.9,2.3-2.1,3.9-3.6c0.7-0.6,1.6-0.8,2.8-0.8
			c1.3,0,2.4,0.4,3.2,1.1s1.2,1.7,1.2,3.1c0,1.2-0.5,2.5-1.4,4.1c-0.9,1.6-2.3,3-4.1,4.5c-1.8,1.4-4.2,2.6-6.9,3.6
			c-2.8,0.9-6,1.4-9.6,1.4c-8.3,0-14.7-2.4-19.3-7.1s-6.9-11.1-6.9-19.2c0-3.8,0.6-7.3,1.7-10.6c1.1-3.3,2.8-6,5-8.4
			c2.2-2.3,4.8-4.1,8-5.4s6.7-1.9,10.6-1.9c5,0,9.3,1.1,12.9,3.2c3.6,2.1,6.3,4.9,8.1,8.2c1.8,3.4,2.7,6.8,2.7,10.3
			c0,3.2-0.9,5.3-2.8,6.3C1528.1,1485.4,1525.5,1485.9,1522.1,1485.9z M1496.9,1478.6h23.3c-0.3-4.4-1.5-7.7-3.6-9.9
			c-2.1-2.2-4.8-3.3-8.1-3.3c-3.2,0-5.8,1.1-7.9,3.3C1498.6,1471,1497.4,1474.3,1496.9,1478.6z"/>
		<path class="st2" d="M1555.3,1463.7v1.6c2.3-3,4.7-5.2,7.4-6.6c2.7-1.4,5.8-2.1,9.3-2.1c3.4,0,6.4,0.7,9.1,2.2
			c2.7,1.5,4.7,3.6,6,6.3c0.8,1.6,1.4,3.3,1.7,5.1c0.3,1.8,0.4,4.2,0.4,7v24c0,2.6-0.6,4.5-1.8,5.8c-1.2,1.3-2.7,2-4.6,2
			c-1.9,0-3.5-0.7-4.7-2c-1.2-1.4-1.8-3.3-1.8-5.8v-21.5c0-4.2-0.6-7.5-1.8-9.7c-1.2-2.2-3.5-3.4-7.1-3.4c-2.3,0-4.4,0.7-6.3,2.1
			c-1.9,1.4-3.3,3.2-4.2,5.6c-0.6,1.9-0.9,5.5-0.9,10.8v16.1c0,2.6-0.6,4.6-1.8,5.9c-1.2,1.3-2.8,2-4.7,2c-1.9,0-3.4-0.7-4.6-2
			c-1.2-1.4-1.8-3.3-1.8-5.8v-37.2c0-2.5,0.5-4.3,1.6-5.5c1.1-1.2,2.5-1.8,4.4-1.8c1.1,0,2.2,0.3,3.1,0.8c0.9,0.5,1.6,1.3,2.2,2.4
			C1555,1460.9,1555.3,1462.2,1555.3,1463.7z"/>
		<path class="st2" d="M1648.1,1493c0,1.6-0.5,3.3-1.4,5.1c-1,1.8-2.4,3.6-4.4,5.2c-2,1.7-4.4,3-7.4,4c-3,1-6.4,1.5-10.1,1.5
			c-8,0-14.2-2.3-18.6-7c-4.5-4.6-6.7-10.9-6.7-18.7c0-5.3,1-10,3.1-14c2-4.1,5-7.2,8.9-9.4c3.9-2.2,8.5-3.3,13.9-3.3
			c3.3,0,6.4,0.5,9.2,1.5c2.8,1,5.1,2.2,7.1,3.8c1.9,1.5,3.4,3.2,4.4,4.9c1,1.7,1.5,3.4,1.5,4.9c0,1.5-0.6,2.8-1.7,3.9
			c-1.1,1.1-2.5,1.6-4.2,1.6c-1.1,0-2-0.3-2.7-0.8c-0.7-0.5-1.5-1.4-2.4-2.7c-1.6-2.4-3.2-4.2-4.9-5.4c-1.7-1.2-3.9-1.8-6.5-1.8
			c-3.8,0-6.9,1.5-9.2,4.5c-2.3,3-3.5,7-3.5,12.2c0,2.4,0.3,4.6,0.9,6.7s1.5,3.8,2.6,5.2s2.5,2.5,4.1,3.3c1.6,0.7,3.4,1.1,5.3,1.1
			c2.6,0,4.8-0.6,6.6-1.8c1.8-1.2,3.5-3,4.9-5.5c0.8-1.4,1.6-2.6,2.5-3.4c0.9-0.8,2-1.2,3.3-1.2c1.6,0,2.9,0.6,3.9,1.8
			C1647.6,1490.4,1648.1,1491.6,1648.1,1493z"/>
		<path class="st2" d="M1668.7,1510.5l1.2-2.9l-15.8-39.9c-1-2.3-1.5-4-1.5-5c0-1.1,0.3-2.1,0.8-3.1c0.6-0.9,1.3-1.7,2.3-2.3
			c1-0.6,2-0.8,3.1-0.8c1.9,0,3.3,0.6,4.2,1.8s1.8,2.9,2.5,5.1l10.9,31.7l10.3-29.5c0.8-2.4,1.6-4.3,2.2-5.6s1.4-2.3,2.1-2.7
			s1.8-0.7,3.1-0.7c1,0,1.9,0.3,2.8,0.8c0.9,0.5,1.6,1.2,2.1,2.1c0.5,0.9,0.7,1.8,0.7,2.8c-0.1,0.6-0.3,1.4-0.6,2.5s-0.6,2.2-1,3.3
			l-16.8,44c-1.4,3.9-2.9,6.9-4.2,9.1c-1.4,2.2-3.2,3.9-5.5,5.1c-2.3,1.2-5.4,1.8-9.2,1.8c-3.8,0-6.6-0.4-8.5-1.2s-2.8-2.3-2.8-4.5
			c0-1.5,0.4-2.6,1.3-3.4c0.9-0.8,2.2-1.2,4-1.2c0.7,0,1.4,0.1,2,0.3c0.8,0.2,1.5,0.3,2.1,0.3c1.5,0,2.6-0.2,3.5-0.7
			c0.8-0.4,1.6-1.2,2.3-2.3S1667.8,1512.6,1668.7,1510.5z"/>
	</g>
</g>
</svg>
