<?xml version="1.0" encoding="utf-8"?>
<!-- Generator: Adobe Illustrator 28.4.1, SVG Export Plug-In . SVG Version: 6.00 Build 0)  -->
<svg version="1.1" id="Calque_1" xmlns="http://www.w3.org/2000/svg" xmlns:xlink="http://www.w3.org/1999/xlink" x="0px" y="0px"
	 viewBox="0 0 500 500" style="enable-background:new 0 0 500 500;" xml:space="preserve">
<style type="text/css">
	.st0{display:none;fill:#0C5329;}
	.st1{fill:#FFFFFF;}
</style>
<image style="display:none;overflow:visible;" width="348" height="348" xlink:href="f.png"  transform="matrix(1 0 0 1 76 76)">
</image>
<path class="st0" d="M250,110.2c-77.2,0-139.8,62.6-139.8,139.8S172.8,389.8,250,389.8S389.8,327.2,389.8,250S327.2,110.2,250,110.2
	z M292.1,192.9h-24.9c-0.8,1.5-2.1,2.6-3.7,3.1v24h28.6c-0.9,10-1.8,19.9-2.7,29.9c-8.6,0-17.2,0-25.9,0v90.8h-36V250
	c-6.2,0-12.5,0-18.7,0v-29.9h18.7v-29.4c0-0.2,0-0.4,0-0.6c0.3-15.8,13.2-28.6,29.2-28.6h35.4V192.9z"/>
<path class="st0" d="M227.5,190.1c0,0.2,0,0.4,0,0.6L227.5,190.1L227.5,190.1z"/>
<image style="display:none;overflow:visible;" width="225" height="225" xlink:href="téléchargement.jpg"  transform="matrix(1.2488 0 0 1.2488 109.984 109.514)">
</image>
<circle class="st1" cx="250.5" cy="250" r="34.3"/>
<path class="st1" d="M287.3,162.9h-73.7c-26,0-47.2,21.1-47.2,47.2V290c0,26,21.1,47.2,47.2,47.2h73.7c26,0,47.2-21.1,47.2-47.2V210
	C334.5,184,313.4,162.9,287.3,162.9z M250.5,302.4c-29,0-52.4-23.5-52.4-52.4s23.5-52.4,52.4-52.4c29,0,52.4,23.5,52.4,52.4
	S279.4,302.4,250.5,302.4z M304.9,207.3c-6.8,0-12.3-5.5-12.3-12.3s5.5-12.3,12.3-12.3s12.3,5.5,12.3,12.3S311.7,207.3,304.9,207.3z
	"/>
<path class="st1" d="M324.8,109.5H176.1c-36.5,0-66.1,29.6-66.1,66.1v148.7c0,36.5,29.6,66.1,66.1,66.1h148.7
	c36.5,0,66.1-29.6,66.1-66.1V175.7C391,139.1,361.3,109.5,324.8,109.5z M353.7,287.7c0,36.5-29.6,66.1-66.1,66.1h-75.1
	c-36.5,0-66.1-29.6-66.1-66.1v-75.1c0-36.5,29.6-66.1,66.1-66.1h75.1c36.5,0,66.1,29.6,66.1,66.1V287.7z"/>
<circle class="st1" cx="250.5" cy="250" r="34.3"/>
<path class="st1" d="M287.3,162.9h-73.7c-26,0-47.2,21.1-47.2,47.2V290c0,26,21.1,47.2,47.2,47.2h73.7c26,0,47.2-21.1,47.2-47.2V210
	C334.5,184,313.4,162.9,287.3,162.9z M250.5,302.4c-29,0-52.4-23.5-52.4-52.4s23.5-52.4,52.4-52.4c29,0,52.4,23.5,52.4,52.4
	S279.4,302.4,250.5,302.4z M304.9,207.3c-6.8,0-12.3-5.5-12.3-12.3s5.5-12.3,12.3-12.3s12.3,5.5,12.3,12.3S311.7,207.3,304.9,207.3z
	"/>
<circle class="st1" cx="250.5" cy="250" r="34.3"/>
<path class="st1" d="M287.3,162.9h-73.7c-26,0-47.2,21.1-47.2,47.2V290c0,26,21.1,47.2,47.2,47.2h73.7c26,0,47.2-21.1,47.2-47.2V210
	C334.5,184,313.4,162.9,287.3,162.9z M250.5,302.4c-29,0-52.4-23.5-52.4-52.4s23.5-52.4,52.4-52.4c29,0,52.4,23.5,52.4,52.4
	S279.4,302.4,250.5,302.4z M304.9,207.3c-6.8,0-12.3-5.5-12.3-12.3s5.5-12.3,12.3-12.3s12.3,5.5,12.3,12.3S311.7,207.3,304.9,207.3z
	"/>
<circle class="st1" cx="250.5" cy="250" r="34.3"/>
<circle class="st1" cx="250.5" cy="250" r="34.3"/>
</svg>
